<svg xmlns="http://www.w3.org/2000/svg" viewBox="0 0 64 64" role="img" aria-label="S">
  <defs>
    <linearGradient id="g" x1="0%" x2="100%" y1="0%" y2="100%">
      <stop offset="0%" stop-color="#38f4ff" />
      <stop offset="55%" stop-color="#c8ff2e" />
      <stop offset="100%" stop-color="#ff3ea5" />
    </linearGradient>
  </defs>
  <rect width="64" height="64" rx="8" fill="#050607" />
  <path d="M8 14h48M8 32h48M8 50h48M14 8v48M32 8v48M50 8v48" stroke="#f7f7f2" stroke-opacity="0.2" />
  <rect x="9" y="9" width="46" height="46" rx="4" fill="none" stroke="url(#g)" stroke-width="3" />
  <path
    d="M38.4 16.7c-6.3 0-10.7 3.1-10.7 7.8 0 4 2.6 6 8.1 7.5 4.1 1.1 5.6 2.2 5.6 4.5 0 2.6-2.4 4.2-5.9 4.2-3 0-6-1.1-8.6-3.4l-4.3 5.2c3.4 3 7.7 4.6 12.7 4.6 8.2 0 13.7-4.3 13.7-11 0-5.3-2.9-8.2-9-9.8-4-1.1-5-1.9-5-3.8 0-2 1.9-3.4 4.8-3.4 2.5 0 5 0.9 7.4 2.8l3.9-5.3c-3-2.4-6.8-3.9-12.7-3.9Z"
    fill="#f7f7f2"
  />
</svg>
